<svg width="220" height="48" viewBox="0 0 220 48" fill="none" xmlns="http://www.w3.org/2000/svg">
  <rect x="1" y="1" width="46" height="46" rx="10" fill="#182B49"/>
  <path d="M14 34V14H24.4C29.1 14 32 16.6 32 20.7C32 23.5 30.5 25.6 28 26.6L32.7 34H27.9L23.9 27.4H18.2V34H14ZM18.2 24.1H24.1C26.1 24.1 27.4 22.8 27.4 20.8C27.4 18.8 26.1 17.5 24.1 17.5H18.2V24.1Z" fill="#FFCD00"/>
  <path d="M40 14L34 34H29.7L33.7 20.8L40 14Z" fill="#FFCD00"/>
  <text x="59" y="20" fill="#182B49" font-family="Georgia, 'Times New Roman', serif" font-size="18" font-weight="700">Rady</text>
  <text x="59" y="35" fill="#355C7D" font-family="Arial, Helvetica, sans-serif" font-size="10" letter-spacing="1.2">SCHOOL OF MANAGEMENT</text>
</svg>
